<?xml version="1.0" encoding="utf-8"?>
<!-- Generator: Adobe Illustrator 16.0.0, SVG Export Plug-In . SVG Version: 6.00 Build 0)  -->
<!DOCTYPE svg PUBLIC "-//W3C//DTD SVG 1.1//EN" "http://www.w3.org/Graphics/SVG/1.1/DTD/svg11.dtd">
<svg version="1.1" id="Layer_1" xmlns="http://www.w3.org/2000/svg" xmlns:xlink="http://www.w3.org/1999/xlink" x="0px" y="0px"
	 width="129.83px" height="60px" viewBox="0 0 129.83 60" enable-background="new 0 0 129.83 60" xml:space="preserve">
<path fill="#FFFFFF" d="M70.105,18.542h-4.212v7.561h-5.544V0.9h10.297c6.012,0,9.648,3.563,9.648,8.713v0.072
	C80.295,15.518,75.758,18.542,70.105,18.542 M74.678,9.722c0-2.484-1.729-3.817-4.5-3.817h-4.285v7.705h4.393
	c2.772,0,4.392-1.656,4.392-3.816V9.722z"/>
<path fill="#FFFFFF" d="M94.91,26.499c-6.77,0-10.91-3.781-10.91-11.197v-14.4h5.545v14.256c0,4.104,2.052,6.229,5.437,6.229
	c3.384,0,5.437-2.053,5.437-6.049V0.901h5.545v14.221C105.963,22.754,101.678,26.499,94.91,26.499"/>
<path fill="#FFFFFF" d="M120.577,26.463c-3.817,0-7.668-1.332-10.692-4.033l3.275-3.924c2.27,1.872,4.645,3.061,7.525,3.061
	c2.268,0,3.636-0.9,3.636-2.376v-0.072c0-1.404-0.862-2.124-5.076-3.204c-5.077-1.296-8.353-2.701-8.353-7.705V8.137
	c0-4.571,3.673-7.597,8.82-7.597c3.672,0,6.805,1.152,9.361,3.205l-2.881,4.176c-2.23-1.548-4.428-2.483-6.553-2.483
	c-2.123,0-3.239,0.972-3.239,2.195v0.072c0,1.656,1.08,2.196,5.437,3.313c5.112,1.331,7.992,3.167,7.992,7.561v0.072
	C129.83,23.654,126.014,26.463,120.577,26.463"/>
<polygon fill="#FFFFFF" points="78.026,59.103 65.821,43.081 65.821,59.103 60.349,59.103 60.349,33.9 65.461,33.9 77.271,49.418 
	77.271,33.9 82.742,33.9 82.742,59.103 "/>
<polygon fill="#FFFFFF" points="88.788,59.103 88.788,33.9 107.798,33.9 107.798,38.833 94.297,38.833 94.297,43.945 
	106.178,43.945 106.178,48.878 94.297,48.878 94.297,54.171 107.977,54.171 107.977,59.103 "/>
<path fill="#FFFFFF" d="M27,29.969c0,7.456-6.044,13.5-13.5,13.5S0,37.425,0,29.969s6.044-13.5,13.5-13.5S27,22.513,27,29.969"/>
<path fill="#FFFFFF" d="M42.063,0c-7.456,0-13.5,6.044-13.5,13.5S34.606,27,42.063,27s13.5-6.044,13.5-13.5S49.519,0,42.063,0
	 M42.063,21.469c-4.401,0-7.969-3.568-7.969-7.969c0-4.401,3.568-7.97,7.969-7.97s7.969,3.568,7.969,7.97
	C50.031,17.9,46.463,21.469,42.063,21.469"/>
<path fill="#FFFFFF" d="M42.063,33c-7.456,0-13.5,6.044-13.5,13.5S34.606,60,42.063,60s13.5-6.044,13.5-13.5S49.519,33,42.063,33
	 M42.063,54.469c-4.401,0-7.969-3.568-7.969-7.969c0-4.401,3.568-7.969,7.969-7.969s7.969,3.567,7.969,7.969
	C50.031,50.9,46.463,54.469,42.063,54.469"/>
</svg>
